<svg width="100" height="79" viewBox="0 0 100 79" fill="none" xmlns="http://www.w3.org/2000/svg">
<g clip-path="url(#clip0_2935_5633)">
<path d="M91.7062 78.0269C92.8263 78.0269 93.9348 77.7998 94.9648 77.3591C95.9948 76.9185 96.9251 76.2735 97.6994 75.463C98.4737 74.6525 99.0761 73.6934 99.4701 72.6434C99.8642 71.5935 100.042 70.4745 99.9922 69.3539C99.7194 63.1738 95.7971 54.3166 85.1064 46.3173C70.2724 35.2182 80.0523 9.8759 60.5807 7.22893C28.5754 2.8792 34.6303 31.3264 14.8678 41.6977C2.28798 48.2996 0.00079014 61.217 0 69.7346C0.00205981 71.9355 0.8769 74.0454 2.43214 75.6004C3.98739 77.1554 6.09569 78.0282 8.29344 78.0269H91.7062Z" fill="#F3F5FD"/>
<path d="M72.2643 1.87427H39.9477C37.473 1.87427 35.4668 3.88323 35.4668 6.36141V72.3933C35.4668 74.8715 37.473 76.8804 39.9477 76.8804H72.2643C74.739 76.8804 76.7452 74.8715 76.7452 72.3933V6.36141C76.7452 3.88323 74.739 1.87427 72.2643 1.87427Z" fill="white"/>
<path d="M72.2641 78.044H39.9476C38.4515 78.0423 37.0173 77.4464 35.9594 76.387C34.9015 75.3277 34.3064 73.8914 34.3047 72.3932V6.36149C34.3064 4.86334 34.9015 3.42705 35.9594 2.3677C37.0173 1.30835 38.4515 0.712438 39.9476 0.710693H72.2643C73.7604 0.712438 75.1947 1.30835 76.2525 2.3677C77.3104 3.42705 77.9055 4.86334 77.9072 6.36149V72.3932C77.9055 73.8914 77.3104 75.3278 76.2525 76.3871C75.1945 77.4465 73.7602 78.0424 72.2641 78.044ZM39.9476 3.03774C39.0678 3.03886 38.2244 3.38934 37.6022 4.01232C36.9801 4.6353 36.6301 5.47993 36.629 6.36096V72.3932C36.6301 73.2743 36.9801 74.1189 37.6022 74.7419C38.2243 75.3649 39.0678 75.7154 39.9476 75.7165H72.2643C73.1441 75.7154 73.9876 75.3649 74.6097 74.7419C75.2319 74.1189 75.5818 73.2743 75.5829 72.3932V6.36149C75.5818 5.48046 75.2318 4.63583 74.6097 4.01285C73.9876 3.38987 73.1441 3.03938 72.2643 3.03827L39.9476 3.03774Z" fill="#DEE8F5"/>
<path d="M49.0294 1.87427H63.1812V4.62384C63.1812 4.89412 63.1281 5.16175 63.0248 5.41146C62.9215 5.66117 62.7701 5.88806 62.5793 6.07917C62.3884 6.27029 62.1618 6.4219 61.9125 6.52533C61.6631 6.62876 61.3959 6.682 61.1259 6.682H51.0846C50.5395 6.682 50.0167 6.46515 49.6313 6.07917C49.2458 5.6932 49.0293 5.1697 49.0293 4.62384V1.87427H49.0294Z" fill="#DEE8F5"/>
<ellipse cx="56.0999" cy="26.2942" rx="10.2718" ry="10.2862" fill="#C1D8ED"/>
<path d="M11.537 18.3271C11.5167 16.3662 12.2907 15.1511 13.3398 14.484C14.3752 13.8257 17.6219 13.2527 18.8528 15.6424C19.6561 17.2018 19.339 17.7592 19.5665 20.2568C19.7941 22.7543 20.6683 23.0165 21.5551 26.0438C22.2504 28.4184 18.355 29.679 14.9823 29.5701C11.6096 29.4612 9.47104 28.7129 9.27535 26.5651C8.99393 23.482 11.5765 22.1696 11.537 18.3271Z" fill="#0F1011"/>
<path d="M13.5469 23.7491C13.5469 23.7491 14.5601 23.199 14.3074 20.4244L16.4076 20.0144C16.4076 20.0144 16.194 22.5068 17.2655 23.2867L13.5469 23.7491Z" fill="#E98862"/>
<g opacity="0.15">
<path opacity="0.15" d="M16.8304 22.7695L15.0703 21.4467L16.4429 21.4203C16.487 21.8903 16.6184 22.3478 16.8304 22.7695Z" fill="black"/>
</g>
<path d="M13.1045 19.3577C13.2579 20.1988 13.7242 20.9929 14.4688 21.2576C15.2806 21.5716 16.1568 21.682 17.021 21.5791C19.3225 21.3688 18.8189 16.1289 17.7161 15.1203C16.6133 14.1117 13.4098 14.7863 13.0353 16.4935C12.8416 17.3769 12.9585 18.5575 13.1045 19.3577Z" fill="#E98862"/>
<path d="M16.39 18.6789C16.4954 18.6789 16.5809 18.5934 16.5809 18.4878C16.5809 18.3823 16.4954 18.2968 16.39 18.2968C16.2847 18.2968 16.1992 18.3823 16.1992 18.4878C16.1992 18.5934 16.2847 18.6789 16.39 18.6789Z" fill="#0F1011"/>
<path d="M17.8939 18.5413C17.9993 18.5413 18.0848 18.4558 18.0848 18.3503C18.0848 18.2447 17.9993 18.1592 17.8939 18.1592C17.7886 18.1592 17.7031 18.2447 17.7031 18.3503C17.7031 18.4558 17.7886 18.5413 17.8939 18.5413Z" fill="#0F1011"/>
<path d="M18.2206 17.9401C18.2444 17.9401 18.2672 17.9306 18.284 17.9138C18.3008 17.897 18.3103 17.8741 18.3103 17.8503C18.3103 17.8265 18.3008 17.8036 18.284 17.7868C18.2672 17.77 18.2444 17.7605 18.2206 17.7605L17.7152 17.7589C17.692 17.7598 17.6701 17.7696 17.654 17.7864C17.6379 17.8031 17.6289 17.8254 17.6289 17.8487C17.6289 17.8719 17.6379 17.8942 17.654 17.9109C17.6701 17.9277 17.692 17.9375 17.7152 17.9384L18.2206 17.9401Z" fill="#0F1011"/>
<path d="M15.9744 18.1452C15.9817 18.1452 15.9891 18.1443 15.9962 18.1426L16.4935 18.0179C16.516 18.0117 16.5353 17.9969 16.5471 17.9766C16.5589 17.9564 16.5623 17.9323 16.5566 17.9096C16.5509 17.8869 16.5366 17.8672 16.5167 17.8549C16.4968 17.8426 16.4728 17.8386 16.45 17.8437L15.9528 17.9685C15.9315 17.9738 15.913 17.9866 15.9006 18.0047C15.8882 18.0227 15.8828 18.0447 15.8854 18.0664C15.8881 18.0882 15.8986 18.1082 15.915 18.1227C15.9314 18.1372 15.9525 18.1452 15.9744 18.1452Z" fill="#0F1011"/>
<path d="M16.4922 19.9918C16.4922 19.9918 17.1973 20.0597 17.6894 19.8823C17.6894 19.8823 17.6894 20.3469 17.1327 20.3978C16.5761 20.4487 16.4922 19.9918 16.4922 19.9918Z" fill="white"/>
<path d="M14.6334 17.1612C14.5834 20.9661 14.2172 22.4442 14.2172 22.4442C14.2172 22.4442 12.418 20.2671 12.1465 17.9605C11.8919 15.7989 13.4725 14.5067 14.5461 14.2559C18.6259 13.3029 18.9091 16.2829 18.9091 16.2829C18.6458 17.2995 14.1916 17.9303 14.1916 17.9303" fill="#0F1011"/>
<path d="M15.4342 19.3201C15.4527 19.5335 15.3861 19.7456 15.2488 19.9099C15.1116 20.0743 14.9149 20.1775 14.7018 20.197C14.4888 20.2164 14.2767 20.1506 14.112 20.0139C13.9473 19.8771 13.8434 19.6806 13.823 19.4674C13.8115 19.3611 13.8215 19.2536 13.8523 19.1513C13.8832 19.049 13.9343 18.9539 14.0026 18.8717C14.0709 18.7896 14.155 18.7221 14.2499 18.6731C14.3448 18.6242 14.4486 18.5949 14.555 18.587C15.1315 18.5629 15.3935 18.8746 15.4342 19.3201Z" fill="#E98862"/>
<g opacity="0.15">
<path opacity="0.15" d="M17.2473 19.5398C17.2317 19.5398 17.2165 19.5342 17.2046 19.5239C17.1927 19.5137 17.1848 19.4996 17.1824 19.4841C17.18 19.4685 17.1832 19.4527 17.1914 19.4393C17.1997 19.4259 17.2124 19.4159 17.2273 19.4111L17.6144 19.2882L17.3378 18.6853C17.3339 18.6774 17.3316 18.6688 17.3311 18.66C17.3306 18.6512 17.3318 18.6424 17.3347 18.6341C17.3377 18.6257 17.3422 18.6181 17.3482 18.6116C17.3541 18.6051 17.3613 18.5998 17.3693 18.5961C17.3773 18.5924 17.3859 18.5904 17.3947 18.5901C17.4035 18.5898 17.4123 18.5913 17.4205 18.5945C17.4287 18.5977 17.4362 18.6025 17.4426 18.6086C17.4489 18.6147 17.4539 18.6221 17.4574 18.6302L17.7657 19.3009C17.7696 19.3093 17.7716 19.3185 17.7717 19.3279C17.7718 19.3372 17.7699 19.3464 17.7662 19.3549C17.7625 19.3635 17.757 19.3711 17.7501 19.3774C17.7432 19.3836 17.735 19.3884 17.7262 19.3912L17.2682 19.5363C17.2615 19.5386 17.2544 19.5398 17.2473 19.5398Z" fill="black"/>
</g>
<path d="M30.8438 29.7112C30.8438 29.7112 31.6182 28.7908 32.4421 28.645C33.2659 28.4991 33.0601 28.9737 32.5707 29.3278C32.0814 29.6819 30.9773 30.3948 30.9773 30.3948" fill="#E98862"/>
<path d="M31.4102 29.4318C31.4102 29.4318 32.9474 28.8058 33.6062 29.0889C33.6062 29.0889 34.1805 29.6532 33.6177 30.3944C33.0778 31.1054 31.6687 31.3694 31.6687 31.3694L31.4102 29.4318Z" fill="#E98862"/>
<path d="M22.5256 76.6001L19.7793 76.273C19.903 75.2322 20.0427 73.9819 20.0522 73.7769C20.0522 73.79 20.0522 73.8009 20.0522 73.8093H22.8177C22.8171 73.8922 22.8171 74.1448 22.5256 76.6001Z" fill="#E98862"/>
<path d="M11.5077 76.931L8.74219 76.922C8.74219 76.922 8.75141 74.0624 8.75141 73.8098H11.5169C11.5169 74.0631 11.5077 76.931 11.5077 76.931Z" fill="#E98862"/>
<path d="M18.6746 75.7255L23.5471 75.6424C23.3446 70.5042 23.3101 64.6273 23.2557 59.3092C23.2406 57.9911 23.1412 56.6752 22.9581 55.3698C22.1743 49.7358 21.6629 44.1342 20.6077 38.5323L20.5724 38.5427L20.4695 37.8399L10.4509 37.2207L9.92945 43.7748C9.92945 43.7748 8.6244 66.4502 8.0293 75.5676L12.8846 75.9784C13.7594 67.0392 15.1132 54.0141 15.9458 44.6232C16.9021 49.1952 17.5525 53.9293 18.384 58.4622C18.5495 64.1368 18.69 70.0684 18.6746 75.7255Z" fill="#262626"/>
<path d="M14.8681 78.002C14.9425 78.0016 15.016 77.9859 15.0841 77.9559C15.1521 77.9258 15.2132 77.882 15.2636 77.8272C15.314 77.7724 15.3526 77.7078 15.3769 77.6374C15.4012 77.5671 15.4108 77.4924 15.405 77.4181C15.397 77.3152 15.3598 77.2168 15.2977 77.1343C15.2357 77.0519 15.1514 76.9889 15.0549 76.9528L11.836 75.8731C11.7736 75.8524 11.7075 75.8455 11.6423 75.8528C11.577 75.8601 11.514 75.8814 11.4578 75.9153C11.0152 76.2227 10.4859 76.3799 9.94754 76.3637C9.52824 76.3338 9.12576 76.1866 8.78604 75.9386C8.75617 75.9141 8.71995 75.8986 8.68161 75.8939C8.64327 75.8892 8.60438 75.8955 8.56949 75.9121C8.53459 75.9287 8.50512 75.9549 8.48452 75.9876C8.46392 76.0203 8.45303 76.0582 8.45313 76.0969V77.6731C8.45313 77.7196 8.4623 77.7656 8.48011 77.8085C8.49792 77.8515 8.52403 77.8905 8.55693 77.9233C8.58983 77.9561 8.62888 77.9821 8.67184 77.9998C8.71479 78.0174 8.76081 78.0264 8.80724 78.0262L14.8681 78.002Z" fill="#C1D8ED"/>
<path d="M25.8955 78.002C25.9699 78.0016 26.0434 77.9859 26.1114 77.9559C26.1795 77.9258 26.2406 77.882 26.2909 77.8272C26.3413 77.7724 26.3799 77.7078 26.4042 77.6374C26.4285 77.5671 26.4381 77.4924 26.4323 77.4181C26.4243 77.3152 26.3871 77.2167 26.325 77.1343C26.263 77.0518 26.1787 76.9888 26.0821 76.9528L22.8633 75.8731C22.801 75.8524 22.7349 75.8455 22.6696 75.8528C22.6043 75.8601 22.5414 75.8814 22.4851 75.9153C22.0426 76.2227 21.5132 76.3799 20.9749 76.3637C20.5556 76.3338 20.153 76.1865 19.8133 75.9386C19.7834 75.9142 19.7472 75.8987 19.7089 75.894C19.6705 75.8893 19.6317 75.8956 19.5968 75.9122C19.5619 75.9288 19.5325 75.955 19.5119 75.9877C19.4913 76.0203 19.4804 76.0582 19.4805 76.0969V77.6731C19.4805 77.7196 19.4896 77.7656 19.5075 77.8085C19.5253 77.8515 19.5514 77.8905 19.5843 77.9233C19.6172 77.9561 19.6562 77.9821 19.6992 77.9998C19.7421 78.0174 19.7881 78.0264 19.8346 78.0262L25.8955 78.002Z" fill="#C1D8ED"/>
<path d="M24.0715 34.2909C23.8311 34.2909 23.5948 34.2282 23.386 34.1088C23.1772 33.9895 23.0031 33.8177 22.8808 33.6104L18.1191 25.5405L20.5001 24.1316L24.689 31.2309L31.3091 28.9633L32.2046 31.5835L24.5193 34.2161C24.3752 34.2656 24.2239 34.2909 24.0715 34.2909Z" fill="url(#paint0_linear_2935_5633)"/>
<path d="M21.12 38.2815C20.5682 39.5515 9.72621 40.079 9.58135 37.845C9.48916 36.4234 10.7402 35.1825 10.7402 32.4118C10.7402 29.6412 8.19465 26.103 10.2688 24.026C10.8706 23.4233 11.9096 23.0343 13.1765 23.033C13.2713 23.7728 17.7567 23.7754 17.7909 23.0501C17.9621 23.0527 18.0951 23.0554 18.1781 23.0593C22.5475 23.2479 20.6275 28.2275 20.5854 31.8856C20.534 36.1661 21.6889 36.9732 21.12 38.2815Z" fill="url(#paint1_linear_2935_5633)"/>
<path d="M17.7902 23.0501C17.7559 23.7754 17.3622 24.8423 16.1467 24.9227C14.5269 25.0295 13.2706 23.7728 13.1758 23.033H13.1797C14.7745 23.0328 16.8605 23.0355 17.7902 23.0501Z" fill="#E98862"/>
<path d="M21.4721 33.2032C21.4721 33.2032 21.1672 31.4663 22.421 31.3227C23.2121 31.2321 25.2009 30.1309 25.5782 31.0513C25.9054 31.8498 24.0062 32.8003 23.3263 32.9766C22.717 33.1334 21.4721 33.2032 21.4721 33.2032Z" fill="#E98862"/>
<path d="M21.9941 31.461C21.9941 31.461 23.6099 30.5738 24.0519 30.5945C24.4433 30.6128 23.7775 31.371 23.7775 31.371L21.9941 31.461Z" fill="#E98862"/>
<path d="M14.959 36.0452C14.6817 36.0452 14.4104 35.9647 14.1778 35.8136C13.9452 35.6625 13.7613 35.4471 13.6483 35.1935L9.625 26.1734L12.2468 25.0006L15.752 32.8603L22.5005 30.7862L23.3433 33.5348L15.3804 35.9816C15.2439 36.0237 15.1018 36.0451 14.959 36.0452Z" fill="url(#paint2_linear_2935_5633)"/>
<path d="M34.3926 29.3669C34.4271 29.3171 34.4435 29.257 34.4393 29.1965C34.4351 29.136 34.4105 29.0787 34.3696 29.0341C34.1699 28.8179 33.7994 28.4752 33.5555 28.6019C33.2077 28.7825 32.512 29.4533 32.7052 29.802C32.8984 30.1507 33.2978 30.5334 33.5559 30.4173C33.751 30.3296 34.1695 29.6919 34.3926 29.3669Z" fill="#E98862"/>
<path d="M54.9558 51.1337H42.207V56.5998H54.9558V51.1337Z" fill="#C1D8ED"/>
<path d="M70.0046 51.1337H57.2559V56.5998H70.0046V51.1337Z" fill="#C1D8ED"/>
<path d="M89.8778 78.0269H67.2206C65.978 74.7888 69.7117 73.192 70.8989 75.2904C70.1908 74.0386 70.0023 72.452 71.4732 71.4307C73.0146 70.6211 74.8708 71.5466 75.1543 73.0111C74.7763 71.061 76.5765 69.1178 78.5797 68.6758C83.7215 67.5425 84.8677 72.6212 84.4018 73.4196C85.7599 71.0931 91.3746 73.9646 89.8778 78.0269Z" fill="#C1D8ED"/>
<path d="M54.4105 26.3279C54.3441 26.3212 54.2643 26.3212 54.1912 26.3279C52.6096 26.2743 51.3535 24.9671 51.3535 23.3582C51.3535 21.7159 52.6694 20.3818 54.3042 20.3818C55.9324 20.3818 57.2549 21.7159 57.2549 23.3582C57.2483 24.9671 55.9922 26.2743 54.4105 26.3279Z" stroke="white" stroke-linecap="round" stroke-linejoin="round"/>
<path d="M59.227 21.7225C60.5163 21.7225 61.553 22.775 61.553 24.0688C61.553 25.3358 60.5562 26.3681 59.3134 26.415C59.2602 26.4083 59.2004 26.4083 59.1406 26.415" stroke="white" stroke-linecap="round" stroke-linejoin="round"/>
<path d="M51.0871 28.8015C49.4788 29.8875 49.4788 31.6573 51.0871 32.7365C52.9146 33.97 55.9119 33.97 57.7394 32.7365C59.3477 31.6506 59.3477 29.8808 57.7394 28.8015C55.9185 27.5748 52.9213 27.5748 51.0871 28.8015Z" stroke="white" stroke-linecap="round" stroke-linejoin="round"/>
<path d="M60.5098 32.4483C60.9883 32.3477 61.4402 32.1533 61.8123 31.8651C62.8491 31.0808 62.8491 29.787 61.8123 29.0027C61.4468 28.7211 61.0015 28.5334 60.5297 28.4261" stroke="white" stroke-linecap="round" stroke-linejoin="round"/>
<path d="M70.0054 39.2172H42.207V40.3287H70.0054V39.2172Z" fill="#DEE8F5"/>
<path d="M70.0054 42.2434H42.207V43.355H70.0054V42.2434Z" fill="#DEE8F5"/>
<path d="M54.9558 45.3733H42.207V46.4849H54.9558V45.3733Z" fill="#DEE8F5"/>
</g>
<defs>
<linearGradient id="paint0_linear_2935_5633" x1="25.1619" y1="24.1316" x2="25.1619" y2="34.2909" gradientUnits="userSpaceOnUse">
<stop offset="0.0260417" stop-color="#F3001F"/>
<stop offset="1" stop-color="#A8091E"/>
</linearGradient>
<linearGradient id="paint1_linear_2935_5633" x1="16.0019" y1="16.7107" x2="15.3665" y2="39.3775" gradientUnits="userSpaceOnUse">
<stop stop-color="#F3001F"/>
<stop offset="1" stop-color="#A8091E"/>
</linearGradient>
<linearGradient id="paint2_linear_2935_5633" x1="16.4841" y1="25.0006" x2="16.4841" y2="36.0452" gradientUnits="userSpaceOnUse">
<stop stop-color="#F3001F"/>
<stop offset="0.927083" stop-color="#A8091E"/>
</linearGradient>
<clipPath id="clip0_2935_5633">
<rect width="100" height="77.3333" fill="white" transform="translate(0 0.710693)"/>
</clipPath>
</defs>
</svg>
