<svg width="15" height="15" viewBox="0 0 15 15" fill="none" xmlns="http://www.w3.org/2000/svg">
<path d="M10.4689 2.225V1.25C10.4689 0.99375 10.2564 0.78125 10.0001 0.78125C9.74389 0.78125 9.53139 0.99375 9.53139 1.25V2.1875H5.46889V1.25C5.46889 0.99375 5.25639 0.78125 5.00014 0.78125C4.74389 0.78125 4.53139 0.99375 4.53139 1.25V2.225C2.84389 2.38125 2.02514 3.3875 1.90014 4.88125C1.88764 5.0625 2.03764 5.2125 2.21264 5.2125H12.7876C12.9689 5.2125 13.1189 5.05625 13.1001 4.88125C12.9751 3.3875 12.1564 2.38125 10.4689 2.225Z" fill="#C4C4C4"/>
<path d="M12.5 6.1499H2.5C2.15625 6.1499 1.875 6.43115 1.875 6.7749V10.6249C1.875 12.4999 2.8125 13.7499 5 13.7499H10C12.1875 13.7499 13.125 12.4999 13.125 10.6249V6.7749C13.125 6.43115 12.8438 6.1499 12.5 6.1499ZM5.75625 11.3812C5.69375 11.4374 5.625 11.4812 5.55 11.5124C5.475 11.5437 5.39375 11.5624 5.3125 11.5624C5.23125 11.5624 5.15 11.5437 5.075 11.5124C5 11.4812 4.93125 11.4374 4.86875 11.3812C4.75625 11.2624 4.6875 11.0999 4.6875 10.9374C4.6875 10.7749 4.75625 10.6124 4.86875 10.4937C4.93125 10.4374 5 10.3937 5.075 10.3624C5.225 10.2999 5.4 10.2999 5.55 10.3624C5.625 10.3937 5.69375 10.4374 5.75625 10.4937C5.86875 10.6124 5.9375 10.7749 5.9375 10.9374C5.9375 11.0999 5.86875 11.2624 5.75625 11.3812ZM5.8875 8.9874C5.85625 9.0624 5.8125 9.13115 5.75625 9.19365C5.69375 9.2499 5.625 9.29365 5.55 9.3249C5.475 9.35615 5.39375 9.3749 5.3125 9.3749C5.23125 9.3749 5.15 9.35615 5.075 9.3249C5 9.29365 4.93125 9.2499 4.86875 9.19365C4.8125 9.13115 4.76875 9.0624 4.7375 8.9874C4.70625 8.9124 4.6875 8.83115 4.6875 8.7499C4.6875 8.66865 4.70625 8.5874 4.7375 8.5124C4.76875 8.4374 4.8125 8.36865 4.86875 8.30615C4.93125 8.2499 5 8.20615 5.075 8.1749C5.225 8.1124 5.4 8.1124 5.55 8.1749C5.625 8.20615 5.69375 8.2499 5.75625 8.30615C5.8125 8.36865 5.85625 8.4374 5.8875 8.5124C5.91875 8.5874 5.9375 8.66865 5.9375 8.7499C5.9375 8.83115 5.91875 8.9124 5.8875 8.9874ZM7.94375 9.19365C7.88125 9.2499 7.8125 9.29365 7.7375 9.3249C7.6625 9.35615 7.58125 9.3749 7.5 9.3749C7.41875 9.3749 7.3375 9.35615 7.2625 9.3249C7.1875 9.29365 7.11875 9.2499 7.05625 9.19365C6.94375 9.0749 6.875 8.9124 6.875 8.7499C6.875 8.5874 6.94375 8.4249 7.05625 8.30615C7.11875 8.2499 7.1875 8.20615 7.2625 8.1749C7.4125 8.10615 7.5875 8.10615 7.7375 8.1749C7.8125 8.20615 7.88125 8.2499 7.94375 8.30615C8.05625 8.4249 8.125 8.5874 8.125 8.7499C8.125 8.9124 8.05625 9.0749 7.94375 9.19365Z" fill="#C4C4C4"/>
</svg>
