<svg width="30" height="30" viewBox="0 0 30 30" fill="none" xmlns="http://www.w3.org/2000/svg">
<path d="M30 14.7704C30 22.9279 23.2843 29.5408 15 29.5408C6.71573 29.5408 0 22.9279 0 14.7704C0 6.61294 6.71573 0 15 0C23.2843 0 30 6.61294 30 14.7704Z" fill="#C4C4C4"/>
<path d="M18.93 23.0625H11.07C8.97001 23.0625 7.63501 21.81 7.51501 19.7175L7.12501 13.53C7.06501 12.5925 7.38751 11.6925 8.03251 11.01C8.67001 10.3275 9.57001 9.9375 10.5 9.9375C10.74 9.9375 10.9725 9.795 11.085 9.57L11.625 8.4975C12.0675 7.62 13.1775 6.9375 14.145 6.9375H15.8625C16.83 6.9375 17.9325 7.62 18.375 8.49L18.915 9.585C19.0275 9.795 19.2525 9.9375 19.5 9.9375C20.43 9.9375 21.33 10.3275 21.9675 11.01C22.6125 11.7 22.935 12.5925 22.875 13.53L22.485 19.725C22.35 21.8475 21.0525 23.0625 18.93 23.0625ZM14.145 8.0625C13.59 8.0625 12.885 8.4975 12.63 9L12.09 10.08C11.775 10.6875 11.1675 11.0625 10.5 11.0625C9.87001 11.0625 9.28501 11.3175 8.85001 11.775C8.42251 12.2325 8.20501 12.8325 8.25001 13.455L8.64001 19.65C8.73001 21.165 9.54751 21.9375 11.07 21.9375H18.93C20.445 21.9375 21.2625 21.165 21.36 19.65L21.75 13.455C21.7875 12.8325 21.5775 12.2325 21.15 11.775C20.715 11.3175 20.13 11.0625 19.5 11.0625C18.8325 11.0625 18.225 10.6875 17.91 10.095L17.3625 9C17.115 8.505 16.41 8.07 15.855 8.07H14.145V8.0625Z" fill="white"/>
<path d="M16.125 12.5625H13.875C13.5675 12.5625 13.3125 12.3075 13.3125 12C13.3125 11.6925 13.5675 11.4375 13.875 11.4375H16.125C16.4325 11.4375 16.6875 11.6925 16.6875 12C16.6875 12.3075 16.4325 12.5625 16.125 12.5625Z" fill="white"/>
<path d="M15 20.0625C13.3425 20.0625 12 18.72 12 17.0625C12 15.405 13.3425 14.0625 15 14.0625C16.6575 14.0625 18 15.405 18 17.0625C18 18.72 16.6575 20.0625 15 20.0625ZM15 15.1875C13.965 15.1875 13.125 16.0275 13.125 17.0625C13.125 18.0975 13.965 18.9375 15 18.9375C16.035 18.9375 16.875 18.0975 16.875 17.0625C16.875 16.0275 16.035 15.1875 15 15.1875Z" fill="white"/>
</svg>
