<svg width="11" height="11" viewBox="0 0 11 11" fill="none" xmlns="http://www.w3.org/2000/svg">
<path d="M4.58991 0.354037C4.66607 0.259726 4.76237 0.183651 4.87174 0.131389C4.98112 0.079127 5.10081 0.052002 5.22203 0.052002C5.34325 0.052002 5.46294 0.079127 5.57232 0.131389C5.6817 0.183651 5.778 0.259726 5.85416 0.354037L6.59597 1.27216L7.73509 0.965037C7.85211 0.933486 7.97471 0.928513 8.0939 0.950485C8.21309 0.972457 8.32586 1.02082 8.42394 1.09202C8.52202 1.16322 8.60293 1.25546 8.66073 1.36199C8.71854 1.46851 8.75179 1.58662 8.75803 1.70766L8.81897 2.8866L9.92072 3.3091C10.0338 3.35248 10.1357 3.42059 10.2191 3.50845C10.3024 3.5963 10.3651 3.70168 10.4025 3.81687C10.4399 3.93206 10.451 4.05416 10.4352 4.17422C10.4193 4.29428 10.3768 4.40928 10.3107 4.51079L9.66884 5.4996L10.3123 6.48923C10.3784 6.59074 10.4209 6.70573 10.4368 6.82579C10.4527 6.94586 10.4415 7.06795 10.4041 7.18314C10.3667 7.29833 10.3041 7.40371 10.2207 7.49157C10.1374 7.57942 10.0354 7.64753 9.92234 7.69091L8.81978 8.11341L8.75884 9.29154C8.75257 9.41249 8.71934 9.5305 8.66158 9.63696C8.60382 9.74341 8.52299 9.8356 8.42501 9.90679C8.32703 9.97797 8.21438 10.0264 8.09529 10.0484C7.9762 10.0704 7.85369 10.0656 7.73672 10.0342L6.59678 9.72785L5.85497 10.646C5.77881 10.7403 5.68251 10.8164 5.57313 10.8686C5.46375 10.9209 5.34407 10.948 5.22284 10.948C5.10162 10.948 4.98193 10.9209 4.87256 10.8686C4.76318 10.8164 4.66688 10.7403 4.59072 10.646L3.84891 9.72785L2.70978 10.0342C2.59276 10.0657 2.47016 10.0707 2.35097 10.0487C2.23178 10.0267 2.11901 9.97838 2.02094 9.90718C1.92286 9.83598 1.84195 9.74374 1.78414 9.63721C1.72633 9.53069 1.69309 9.41258 1.68684 9.29154L1.62591 8.11341L0.524158 7.69091C0.410966 7.64756 0.308908 7.57943 0.225463 7.49151C0.142018 7.4036 0.0793011 7.29812 0.0419069 7.18283C0.0045127 7.06753 -0.00661076 6.94532 0.00935162 6.82517C0.025314 6.70501 0.0679578 6.58995 0.134158 6.48841L0.776033 5.4996L0.131721 4.51079C0.065539 4.4092 0.0229323 4.29409 0.00702414 4.17389C-0.00888399 4.05369 0.00230976 3.93146 0.0397848 3.81615C0.0772599 3.70084 0.140066 3.59538 0.223599 3.50751C0.307131 3.41963 0.409272 3.35156 0.522533 3.30829L1.6251 2.8866L1.68522 1.70847C1.69135 1.58737 1.72451 1.46916 1.78227 1.36254C1.84002 1.25591 1.92092 1.16357 2.01901 1.09228C2.1171 1.02099 2.22991 0.972556 2.34916 0.950538C2.46841 0.928521 2.59107 0.933475 2.70816 0.965037L3.84728 1.27135L4.58909 0.353225L4.58991 0.354037ZM6.94453 4.00785L4.61266 6.34623L3.47841 5.21198L3.42153 5.16566C3.33812 5.10773 3.23603 5.08313 3.13538 5.09673C3.03474 5.11033 2.94283 5.16113 2.87779 5.23913C2.81274 5.31712 2.77927 5.41665 2.78396 5.51811C2.78866 5.61956 2.83118 5.71557 2.90316 5.78723L4.32503 7.2091L4.38191 7.25623C4.46025 7.31019 4.55505 7.33496 4.64978 7.3262C4.74451 7.31744 4.83316 7.27571 4.90028 7.20829L7.51978 4.58147L7.56691 4.5246C7.62397 4.44106 7.64781 4.33924 7.63376 4.23905C7.61971 4.13887 7.56879 4.04753 7.49096 3.9829C7.41312 3.91828 7.31398 3.88502 7.21292 3.88963C7.11186 3.89425 7.01615 3.9364 6.94453 4.00785ZM1.62591 2.8866L1.77053 3.26604L1.62591 2.8866Z" fill="white"/>
</svg>
