<svg width="13" height="13" viewBox="0 0 13 13" fill="none" xmlns="http://www.w3.org/2000/svg">
<path d="M8.66732 6.98742V9.26242C8.66732 11.1583 7.90898 11.9166 6.01315 11.9166H3.73815C1.84232 11.9166 1.08398 11.1583 1.08398 9.26242V6.98742C1.08398 5.09159 1.84232 4.33325 3.73815 4.33325H6.01315C7.90898 4.33325 8.66732 5.09159 8.66732 6.98742Z" stroke="#696967" stroke-width="1.5" stroke-linecap="round" stroke-linejoin="round"/>
<path d="M11.9173 3.73742V6.01242C11.9173 7.90825 11.159 8.66659 9.26315 8.66659H8.66732V6.98742C8.66732 5.09159 7.90898 4.33325 6.01315 4.33325H4.33398V3.73742C4.33398 1.84159 5.09232 1.08325 6.98815 1.08325H9.26315C11.159 1.08325 11.9173 1.84159 11.9173 3.73742Z" stroke="#696967" stroke-width="1.5" stroke-linecap="round" stroke-linejoin="round"/>
</svg>
