<svg width="10" height="10" viewBox="0 0 10 10" fill="none" xmlns="http://www.w3.org/2000/svg">
<path d="M6.01895 4.00261C6.20448 4.20714 6.52069 4.22253 6.72522 4.037C6.92974 3.85146 6.94514 3.53525 6.7596 3.33073L6.01895 4.00261ZM4.3447 5.99739C4.15917 5.79287 3.84296 5.77747 3.63843 5.963C3.4339 6.14854 3.41851 6.46475 3.60404 6.66927L4.3447 5.99739ZM5.68182 2.77778C5.68182 2.50164 5.45796 2.27778 5.18182 2.27778C4.90568 2.27778 4.68182 2.50164 4.68182 2.77778H5.68182ZM4.68182 7.22221C4.68181 7.49835 4.90567 7.72222 5.18181 7.72222C5.45795 7.72223 5.68181 7.49838 5.68182 7.22223L4.68182 7.22221ZM8.86364 5C8.86364 6.91228 7.23641 8.5 5.18182 8.5L5.18182 9.5C7.74634 9.5 9.86364 7.50599 9.86364 5L8.86364 5ZM5.18182 8.5C3.12723 8.5 1.5 6.91228 1.5 5H0.5C0.5 7.50599 2.6173 9.5 5.18182 9.5L5.18182 8.5ZM1.5 5C1.5 3.08772 3.12723 1.5 5.18182 1.5V0.5C2.6173 0.5 0.5 2.49401 0.5 5H1.5ZM5.18182 1.5C7.23641 1.5 8.86364 3.08772 8.86364 5L9.86364 5C9.86364 2.49401 7.74634 0.5 5.18182 0.5V1.5ZM5.18182 4.5C4.87749 4.5 4.62541 4.42037 4.46499 4.31807C4.29875 4.21207 4.28788 4.12683 4.28788 4.11111H3.28788C3.28788 4.58632 3.58905 4.94552 3.92732 5.16123C4.27141 5.38065 4.71629 5.5 5.18182 5.5V4.5ZM4.28788 4.11111C4.28788 4.0954 4.29875 4.01015 4.46499 3.90415C4.62541 3.80185 4.87749 3.72222 5.18182 3.72222V2.72222C4.71629 2.72222 4.27141 2.84158 3.92732 3.06099C3.58905 3.2767 3.28788 3.63591 3.28788 4.11111H4.28788ZM5.18182 3.72222C5.60132 3.72222 5.89902 3.8704 6.01895 4.00261L6.7596 3.33073C6.39749 2.93155 5.79423 2.72222 5.18182 2.72222V3.72222ZM5.18182 5.5C5.48614 5.5 5.73823 5.57963 5.89866 5.68193C6.06489 5.78793 6.07577 5.87318 6.07577 5.88889H7.07577C7.07577 5.41368 6.77459 5.05448 6.43632 4.83877C6.09223 4.61935 5.64734 4.5 5.18182 4.5V5.5ZM4.68182 2.77778V3.22222L5.68182 3.22222V2.77778H4.68182ZM4.68183 6.77777L4.68182 7.22221L5.68182 7.22223L5.68183 6.77779L4.68183 6.77777ZM5.18183 6.27778C4.76233 6.27778 4.46463 6.12959 4.3447 5.99739L3.60404 6.66927C3.96615 7.06845 4.56942 7.27778 5.18183 7.27778L5.18183 6.27778ZM6.07577 5.88889C6.07577 5.9046 6.06489 5.98985 5.89866 6.09585C5.73824 6.19815 5.48615 6.27778 5.18183 6.27778V7.27778C5.64735 7.27778 6.09224 7.15842 6.43633 6.93901C6.7746 6.7233 7.07577 6.36409 7.07577 5.88889H6.07577ZM4.68182 3.22222L4.68183 6.77778L5.68183 6.77778L5.68182 3.22222L4.68182 3.22222Z" fill="#FF9A03"/>
</svg>
