<svg width="25" height="24" viewBox="0 0 25 24" fill="none" xmlns="http://www.w3.org/2000/svg">
<path d="M18.54 13.55C18.12 13.96 17.88 14.55 17.94 15.18C18.03 16.26 19.02 17.05 20.1 17.05H22V18.24C22 20.31 20.31 22 18.24 22H8.13C8.44 21.74 8.71 21.42 8.92 21.06C9.29 20.46 9.5 19.75 9.5 19C9.5 16.79 7.71 15 5.5 15C4.56 15 3.69 15.33 3 15.88V11.51C3 9.44001 4.69 7.75 6.76 7.75H18.24C20.31 7.75 22 9.44001 22 11.51V12.95H19.98C19.42 12.95 18.91 13.17 18.54 13.55Z" stroke="white" stroke-width="1.5" stroke-linecap="round" stroke-linejoin="round"/>
<path d="M3 12.4101V7.8401C3 6.6501 3.73 5.59006 4.84 5.17006L12.78 2.17006C14.02 1.70006 15.35 2.62009 15.35 3.95009V7.75008" stroke="white" stroke-width="1.5" stroke-linecap="round" stroke-linejoin="round"/>
<path d="M23.0588 13.9702V16.0302C23.0588 16.5802 22.6188 17.0302 22.0588 17.0502H20.0988C19.0188 17.0502 18.0288 16.2602 17.9388 15.1802C17.8788 14.5502 18.1188 13.9602 18.5388 13.5502C18.9088 13.1702 19.4188 12.9502 19.9788 12.9502H22.0588C22.6188 12.9702 23.0588 13.4202 23.0588 13.9702Z" stroke="white" stroke-width="1.5" stroke-linecap="round" stroke-linejoin="round"/>
<path d="M7.5 12H14.5" stroke="white" stroke-width="1.5" stroke-linecap="round" stroke-linejoin="round"/>
<path d="M9.5 19C9.5 19.75 9.29 20.46 8.92 21.06C8.71 21.42 8.44 21.74 8.13 22C7.43 22.63 6.51 23 5.5 23C4.04 23 2.77 22.22 2.08 21.06C1.71 20.46 1.5 19.75 1.5 19C1.5 17.74 2.08 16.61 3 15.88C3.69 15.33 4.56 15 5.5 15C7.71 15 9.5 16.79 9.5 19Z" stroke="white" stroke-width="1.5" stroke-miterlimit="10" stroke-linecap="round" stroke-linejoin="round"/>
<path d="M6.99171 18.9795H4.01172" stroke="white" stroke-width="1.5" stroke-miterlimit="10" stroke-linecap="round" stroke-linejoin="round"/>
<path d="M5.5 17.5195V20.5095" stroke="white" stroke-width="1.5" stroke-miterlimit="10" stroke-linecap="round" stroke-linejoin="round"/>
</svg>
