<svg width="47" height="47" viewBox="0 0 47 47" fill="none" xmlns="http://www.w3.org/2000/svg">
<path d="M28.3 2H25.7C22.5 2 20.5 4 20.5 7.2V11.25H26.75C27.16 11.25 27.5 11.59 27.5 12C27.5 12.41 27.16 12.75 26.75 12.75H20.5V16.8C20.5 20 22.5 22 25.7 22H28.29C31.49 22 33.49 20 33.49 16.8V7.2C33.5 4 31.5 2 28.3 2Z" fill="#B0B0B0"/>
<path d="M16.0604 11.25L18.1304 9.17997C18.2804 9.02997 18.3504 8.83997 18.3504 8.64997C18.3504 8.45997 18.2804 8.25997 18.1304 8.11997C17.8404 7.82997 17.3604 7.82997 17.0704 8.11997L13.7204 11.47C13.4304 11.76 13.4304 12.24 13.7204 12.53L17.0704 15.88C17.3604 16.17 17.8404 16.17 18.1304 15.88C18.4204 15.59 18.4204 15.11 18.1304 14.82L16.0604 12.75H20.5004V11.25H16.0604Z" fill="#B0B0B0"/>
<path d="M14.5654 35.84H15.7554V35.88L13.0954 38.95L15.9354 42.96V43H14.8054L12.4754 39.66L11.3754 40.93V43H10.4554V35.84H11.3754V39.53H11.4154L14.5654 35.84ZM18.5207 43.16C17.8007 43.16 17.2074 42.9133 16.7407 42.42C16.2741 41.9267 16.0407 41.3033 16.0407 40.55C16.0407 39.8033 16.2674 39.1833 16.7207 38.69C17.1741 38.19 17.7541 37.94 18.4607 37.94C19.1874 37.94 19.7641 38.1767 20.1907 38.65C20.6241 39.1167 20.8407 39.7733 20.8407 40.62L20.8307 40.72H16.9807C16.9941 41.2 17.1541 41.5867 17.4607 41.88C17.7674 42.1733 18.1341 42.32 18.5607 42.32C19.1474 42.32 19.6074 42.0267 19.9407 41.44L20.7607 41.84C20.5407 42.2533 20.2341 42.5767 19.8407 42.81C19.4541 43.0433 19.0141 43.16 18.5207 43.16ZM17.0507 39.96H19.8607C19.8341 39.62 19.6941 39.34 19.4407 39.12C19.1941 38.8933 18.8607 38.78 18.4407 38.78C18.0941 38.78 17.7941 38.8867 17.5407 39.1C17.2941 39.3133 17.1307 39.6 17.0507 39.96ZM22.6021 35.84V43H21.6821V35.84H22.6021ZM28.0231 43H27.1431V42.32H27.1031C26.9631 42.56 26.7464 42.76 26.4531 42.92C26.1664 43.08 25.8664 43.16 25.5531 43.16C24.9531 43.16 24.4898 42.99 24.1631 42.65C23.8431 42.3033 23.6831 41.8133 23.6831 41.18V38.1H24.6031V41.12C24.6231 41.92 25.0264 42.32 25.8131 42.32C26.1798 42.32 26.4864 42.1733 26.7331 41.88C26.9798 41.58 27.1031 41.2233 27.1031 40.81V38.1H28.0231V43ZM29.7642 41.5C29.7642 41.74 29.8642 41.94 30.0642 42.1C30.2708 42.26 30.5108 42.34 30.7842 42.34C31.1708 42.34 31.5142 42.1967 31.8142 41.91C32.1208 41.6233 32.2742 41.2867 32.2742 40.9C31.9875 40.6733 31.5875 40.56 31.0742 40.56C30.7008 40.56 30.3875 40.65 30.1342 40.83C29.8875 41.01 29.7642 41.2333 29.7642 41.5ZM30.9542 37.94C31.6342 37.94 32.1708 38.1233 32.5642 38.49C32.9575 38.85 33.1542 39.3467 33.1542 39.98V43H32.2742V42.32H32.2342C31.8542 42.88 31.3475 43.16 30.7142 43.16C30.1742 43.16 29.7208 43 29.3542 42.68C28.9942 42.36 28.8142 41.96 28.8142 41.48C28.8142 40.9733 29.0042 40.57 29.3842 40.27C29.7708 39.97 30.2842 39.82 30.9242 39.82C31.4708 39.82 31.9208 39.92 32.2742 40.12V39.91C32.2742 39.59 32.1475 39.32 31.8942 39.1C31.6408 38.8733 31.3442 38.76 31.0042 38.76C30.4908 38.76 30.0842 38.9767 29.7842 39.41L28.9742 38.9C29.4208 38.26 30.0808 37.94 30.9542 37.94ZM35.1118 43H34.1918V38.1H35.0718V38.9H35.1118C35.2052 38.64 35.3952 38.42 35.6818 38.24C35.9752 38.0533 36.2618 37.96 36.5418 37.96C36.8085 37.96 37.0352 38 37.2218 38.08L36.9418 38.97C36.8285 38.9233 36.6485 38.9 36.4018 38.9C36.0552 38.9 35.7518 39.04 35.4918 39.32C35.2385 39.6 35.1118 39.9267 35.1118 40.3V43Z" fill="#B0B0B0"/>
</svg>
