<svg width="19" height="19" viewBox="0 0 19 19" fill="none" xmlns="http://www.w3.org/2000/svg">
<path d="M6.86373 11.0833H3.16665C2.29581 11.0833 1.58331 11.7958 1.58331 12.6666V17.4166H6.86373V11.0833Z" stroke="#292D32" stroke-width="1.5" stroke-miterlimit="10" stroke-linecap="round" stroke-linejoin="round"/>
<path d="M10.5529 7.91675H8.43917C7.56833 7.91675 6.85583 8.62925 6.85583 9.50008V17.4167H12.1363V9.50008C12.1363 8.62925 11.4317 7.91675 10.5529 7.91675Z" stroke="#292D32" stroke-width="1.5" stroke-miterlimit="10" stroke-linecap="round" stroke-linejoin="round"/>
<path d="M15.8333 13.4583H12.1362V17.4166H17.4166V15.0416C17.4166 14.1708 16.7041 13.4583 15.8333 13.4583Z" stroke="#292D32" stroke-width="1.5" stroke-miterlimit="10" stroke-linecap="round" stroke-linejoin="round"/>
<path d="M9.91167 1.63873L10.3312 2.4779C10.3867 2.59665 10.5371 2.70748 10.6637 2.72331L11.4237 2.84998C11.9067 2.92915 12.0254 3.28538 11.6771 3.6258L11.0833 4.21955C10.9804 4.32247 10.925 4.51247 10.9567 4.64706L11.1229 5.3754C11.2575 5.95332 10.9487 6.17499 10.4421 5.87415L9.72958 5.45457C9.60292 5.3754 9.38917 5.3754 9.2625 5.45457L8.55 5.87415C8.04333 6.17499 7.73458 5.95332 7.86916 5.3754L8.03542 4.64706C8.06708 4.51247 8.01167 4.31455 7.90875 4.21955L7.32292 3.63372C6.97458 3.28539 7.08542 2.93705 7.57625 2.85788L8.33625 2.73124C8.46291 2.70749 8.61333 2.59665 8.66875 2.48582L9.08833 1.64663C9.31792 1.18747 9.68208 1.18748 9.91167 1.63873Z" stroke="#292D32" stroke-width="1.5" stroke-linecap="round" stroke-linejoin="round"/>
</svg>
