<svg width="19" height="19" viewBox="0 0 19 19" fill="none" xmlns="http://www.w3.org/2000/svg">
<path d="M5.2804 11.0833H3.16665C2.29581 11.0833 1.58331 11.7958 1.58331 12.6666V16.6249C1.58331 17.0603 1.93956 17.4166 2.37498 17.4166H5.2804C5.71581 17.4166 6.07206 17.0603 6.07206 16.6249V11.8749C6.07206 11.4395 5.71581 11.0833 5.2804 11.0833Z" fill="#F3001F"/>
<path d="M10.5529 7.91675H8.43917C7.56834 7.91675 6.85583 8.62925 6.85583 9.50008V16.6251C6.85583 17.0605 7.21208 17.4167 7.6475 17.4167H11.3446C11.78 17.4167 12.1363 17.0605 12.1363 16.6251V9.50008C12.1363 8.62925 11.4317 7.91675 10.5529 7.91675Z" fill="#F3001F"/>
<path d="M15.8333 13.4583H13.7196C13.2842 13.4583 12.9279 13.8145 12.9279 14.2499V16.6249C12.9279 17.0603 13.2842 17.4166 13.7196 17.4166H16.625C17.0604 17.4166 17.4167 17.0603 17.4167 16.6249V15.0416C17.4167 14.1708 16.7042 13.4583 15.8333 13.4583Z" fill="#F3001F"/>
<path d="M11.8829 3.83955C12.1283 3.59413 12.2233 3.30121 12.1442 3.04788C12.065 2.79455 11.8196 2.61246 11.4712 2.55705L10.7112 2.43038C10.6796 2.43038 10.6083 2.37496 10.5925 2.3433L10.1729 1.50413C9.85624 0.862881 9.13583 0.862881 8.81916 1.50413L8.39958 2.3433C8.39166 2.37496 8.32041 2.43038 8.28874 2.43038L7.52874 2.55705C7.18041 2.61246 6.94291 2.79455 6.85583 3.04788C6.77666 3.30121 6.87166 3.59413 7.11708 3.83955L7.70291 4.4333C7.73458 4.45705 7.75833 4.55205 7.75041 4.58371L7.58416 5.31205C7.45749 5.8583 7.66333 6.10371 7.79791 6.19871C7.93249 6.29371 8.22541 6.42038 8.70833 6.13538L9.42083 5.7158C9.45249 5.69205 9.55541 5.69205 9.58708 5.7158L10.2917 6.13538C10.5133 6.26996 10.6954 6.30955 10.8379 6.30955C11.0042 6.30955 11.1229 6.24621 11.1942 6.19871C11.3287 6.10371 11.5346 5.8583 11.4079 5.31205L11.2417 4.58371C11.2337 4.54413 11.2575 4.45705 11.2892 4.4333L11.8829 3.83955Z" fill="#F3001F"/>
</svg>
