<svg width="19" height="19" viewBox="0 0 19 19" fill="none" xmlns="http://www.w3.org/2000/svg">
<path d="M9.47721 17.4168C13.8495 17.4168 17.3939 13.8724 17.3939 9.50016C17.3939 5.12791 13.8495 1.5835 9.47721 1.5835C5.10496 1.5835 1.56055 5.12791 1.56055 9.50016C1.56055 13.8724 5.10496 17.4168 9.47721 17.4168Z" stroke="#1E272E" stroke-width="1.5" stroke-linecap="round" stroke-linejoin="round"/>
<path d="M9.5 13.0625C11.4675 13.0625 13.0625 11.4675 13.0625 9.5C13.0625 7.53249 11.4675 5.9375 9.5 5.9375C7.53249 5.9375 5.9375 7.53249 5.9375 9.5C5.9375 11.4675 7.53249 13.0625 9.5 13.0625Z" stroke="#1E272E" stroke-width="1.5" stroke-linecap="round" stroke-linejoin="round"/>
<path d="M3.87891 3.90283L6.68141 6.69742" stroke="#1E272E" stroke-width="1.5" stroke-linecap="round" stroke-linejoin="round"/>
<path d="M3.87891 15.0973L6.68141 12.3027" stroke="#1E272E" stroke-width="1.5" stroke-linecap="round" stroke-linejoin="round"/>
<path d="M15.0818 15.0973L12.2793 12.3027" stroke="#1E272E" stroke-width="1.5" stroke-linecap="round" stroke-linejoin="round"/>
<path d="M15.0818 3.90283L12.2793 6.69742" stroke="#1E272E" stroke-width="1.5" stroke-linecap="round" stroke-linejoin="round"/>
</svg>
