<svg width="19" height="20" viewBox="0 0 19 20" fill="none" xmlns="http://www.w3.org/2000/svg">
<path d="M4.75 8.41683V6.8335C4.75 4.21308 5.54167 2.0835 9.5 2.0835C13.4583 2.0835 14.25 4.21308 14.25 6.8335V8.41683" stroke="#1E272E" stroke-width="1.5" stroke-linecap="round" stroke-linejoin="round"/>
<path d="M9.50065 15.1458C10.5937 15.1458 11.4798 14.2597 11.4798 13.1667C11.4798 12.0736 10.5937 11.1875 9.50065 11.1875C8.40759 11.1875 7.52148 12.0736 7.52148 13.1667C7.52148 14.2597 8.40759 15.1458 9.50065 15.1458Z" stroke="#1E272E" stroke-width="1.5" stroke-linecap="round" stroke-linejoin="round"/>
<path d="M13.459 17.9165H5.54232C2.37565 17.9165 1.58398 17.1248 1.58398 13.9582V12.3748C1.58398 9.20817 2.37565 8.4165 5.54232 8.4165H13.459C16.6257 8.4165 17.4173 9.20817 17.4173 12.3748V13.9582C17.4173 17.1248 16.6257 17.9165 13.459 17.9165Z" stroke="#1E272E" stroke-width="1.5" stroke-linecap="round" stroke-linejoin="round"/>
</svg>
