<svg width="19" height="19" viewBox="0 0 19 19" fill="none" xmlns="http://www.w3.org/2000/svg">
<path d="M9.59499 10.1175C9.53957 10.1096 9.46832 10.1096 9.40499 10.1175C8.01165 10.07 6.90332 8.93005 6.90332 7.5288C6.90332 6.09588 8.05915 4.93213 9.49999 4.93213C10.9329 4.93213 12.0967 6.09588 12.0967 7.5288C12.0887 8.93005 10.9883 10.07 9.59499 10.1175Z" stroke="#F3001F" stroke-width="1.5" stroke-linecap="round" stroke-linejoin="round"/>
<path d="M14.8358 15.3424C13.4267 16.6328 11.5584 17.4165 9.50002 17.4165C7.44168 17.4165 5.57335 16.6328 4.16418 15.3424C4.24335 14.5982 4.71835 13.8699 5.56543 13.2999C7.7346 11.859 11.2813 11.859 13.4346 13.2999C14.2817 13.8699 14.7567 14.5982 14.8358 15.3424Z" stroke="#F3001F" stroke-width="1.5" stroke-linecap="round" stroke-linejoin="round"/>
<path d="M9.50004 17.4168C13.8723 17.4168 17.4167 13.8724 17.4167 9.50016C17.4167 5.12791 13.8723 1.5835 9.50004 1.5835C5.12779 1.5835 1.58337 5.12791 1.58337 9.50016C1.58337 13.8724 5.12779 17.4168 9.50004 17.4168Z" stroke="#F3001F" stroke-width="1.5" stroke-linecap="round" stroke-linejoin="round"/>
</svg>
