<svg width="19" height="19" viewBox="0 0 19 19" fill="none" xmlns="http://www.w3.org/2000/svg">
<path d="M17.4166 9.49992C17.4166 5.13784 13.8621 1.58325 9.49998 1.58325C5.1379 1.58325 1.58331 5.13784 1.58331 9.49992C1.58331 11.7958 2.5729 13.862 4.1404 15.3108C4.1404 15.3187 4.1404 15.3187 4.13248 15.3266C4.21165 15.4058 4.30665 15.4691 4.38581 15.5403C4.43331 15.5799 4.4729 15.6195 4.5204 15.6512C4.6629 15.7699 4.82123 15.8808 4.97165 15.9916C5.02706 16.0312 5.07456 16.0628 5.12998 16.1024C5.2804 16.2053 5.43873 16.3003 5.60498 16.3874C5.6604 16.4191 5.72373 16.4587 5.77915 16.4903C5.93748 16.5774 6.10373 16.6566 6.2779 16.7278C6.34123 16.7595 6.40456 16.7912 6.4679 16.8149C6.64206 16.8862 6.81623 16.9495 6.9904 17.0049C7.05373 17.0287 7.11706 17.0524 7.1804 17.0683C7.3704 17.1237 7.5604 17.1712 7.7504 17.2187C7.80581 17.2345 7.86123 17.2503 7.92456 17.2583C8.14623 17.3058 8.3679 17.3374 8.59748 17.3612C8.62915 17.3612 8.66081 17.3691 8.69248 17.377C8.96165 17.4008 9.23081 17.4166 9.49998 17.4166C9.76915 17.4166 10.0383 17.4008 10.2996 17.377C10.3312 17.377 10.3629 17.3691 10.3946 17.3612C10.6241 17.3374 10.8458 17.3058 11.0675 17.2583C11.1229 17.2503 11.1783 17.2266 11.2416 17.2187C11.4316 17.1712 11.6296 17.1316 11.8116 17.0683C11.875 17.0445 11.9383 17.0208 12.0016 17.0049C12.1758 16.9416 12.3579 16.8862 12.5241 16.8149C12.5875 16.7912 12.6508 16.7595 12.7141 16.7278C12.8804 16.6566 13.0466 16.5774 13.2129 16.4903C13.2762 16.4587 13.3316 16.4191 13.3871 16.3874C13.5454 16.2924 13.7037 16.2053 13.8621 16.1024C13.9175 16.0708 13.965 16.0312 14.0204 15.9916C14.1787 15.8808 14.3291 15.7699 14.4716 15.6512C14.5191 15.6116 14.5587 15.572 14.6062 15.5403C14.6933 15.4691 14.7804 15.3978 14.8596 15.3266C14.8596 15.3187 14.8596 15.3187 14.8516 15.3108C16.4271 13.862 17.4166 11.7958 17.4166 9.49992ZM13.4108 13.4345C11.2654 11.9937 7.7504 11.9937 5.58915 13.4345C5.24081 13.6641 4.95581 13.9333 4.71831 14.2262C3.51498 13.007 2.77081 11.3366 2.77081 9.49992C2.77081 5.787 5.78706 2.77075 9.49998 2.77075C13.2129 2.77075 16.2291 5.787 16.2291 9.49992C16.2291 11.3366 15.485 13.007 14.2816 14.2262C14.0521 13.9333 13.7591 13.6641 13.4108 13.4345Z" fill="#F3001F"/>
<path d="M9.5 5.48633C7.86125 5.48633 6.53125 6.81633 6.53125 8.45508C6.53125 10.0622 7.79 11.3684 9.46042 11.4159C9.48417 11.4159 9.51583 11.4159 9.53167 11.4159C9.5475 11.4159 9.57125 11.4159 9.58708 11.4159C9.595 11.4159 9.60292 11.4159 9.60292 11.4159C11.2021 11.3605 12.4608 10.0622 12.4688 8.45508C12.4688 6.81633 11.1388 5.48633 9.5 5.48633Z" fill="#F3001F"/>
</svg>
