<svg width="19" height="19" viewBox="0 0 19 19" fill="none" xmlns="http://www.w3.org/2000/svg">
<path d="M9.59499 10.1175C9.53957 10.1096 9.46832 10.1096 9.40499 10.1175C8.01165 10.07 6.90332 8.93005 6.90332 7.5288C6.90332 6.09588 8.05915 4.93213 9.49999 4.93213C10.9329 4.93213 12.0967 6.09588 12.0967 7.5288C12.0887 8.93005 10.9883 10.07 9.59499 10.1175Z" stroke="#292D32" stroke-width="1.5" stroke-linecap="round" stroke-linejoin="round"/>
<path d="M14.8358 15.3426C13.4267 16.633 11.5584 17.4168 9.50002 17.4168C7.44168 17.4168 5.57335 16.633 4.16418 15.3426C4.24335 14.5984 4.71835 13.8701 5.56543 13.3001C7.7346 11.8593 11.2813 11.8593 13.4346 13.3001C14.2817 13.8701 14.7567 14.5984 14.8358 15.3426Z" stroke="#292D32" stroke-width="1.5" stroke-linecap="round" stroke-linejoin="round"/>
<path d="M9.49998 17.4166C13.8722 17.4166 17.4166 13.8722 17.4166 9.49992C17.4166 5.12766 13.8722 1.58325 9.49998 1.58325C5.12773 1.58325 1.58331 5.12766 1.58331 9.49992C1.58331 13.8722 5.12773 17.4166 9.49998 17.4166Z" stroke="#292D32" stroke-width="1.5" stroke-linecap="round" stroke-linejoin="round"/>
</svg>
