<svg width="27" height="27" viewBox="0 0 27 27" fill="none" xmlns="http://www.w3.org/2000/svg">
<path d="M1.20833 0H10.875C11.1955 0 11.5028 0.127306 11.7294 0.353913C11.956 0.580519 12.0833 0.887864 12.0833 1.20833V10.875C12.0833 11.1955 11.956 11.5028 11.7294 11.7294C11.5028 11.956 11.1955 12.0833 10.875 12.0833H1.20833C0.887863 12.0833 0.580519 11.956 0.353913 11.7294C0.127306 11.5028 0 11.1955 0 10.875V1.20833C0 0.887864 0.127306 0.580519 0.353913 0.353913C0.580519 0.127306 0.887863 0 1.20833 0ZM2.41667 2.41667V9.66667H9.66667V2.41667H2.41667Z" fill="black"/>
<path fill-rule="evenodd" clip-rule="evenodd" d="M4.8335 4.8335H7.25016V7.25016H4.8335V4.8335Z" fill="black"/>
<path d="M15.7083 0H25.375C25.6955 0 26.0028 0.127306 26.2294 0.353913C26.456 0.580519 26.5833 0.887864 26.5833 1.20833V10.875C26.5833 11.1955 26.456 11.5028 26.2294 11.7294C26.0028 11.956 25.6955 12.0833 25.375 12.0833H15.7083C15.3879 12.0833 15.0805 11.956 14.8539 11.7294C14.6273 11.5028 14.5 11.1955 14.5 10.875V1.20833C14.5 0.887864 14.6273 0.580519 14.8539 0.353913C15.0805 0.127306 15.3879 0 15.7083 0ZM16.9167 2.41667V9.66667H24.1667V2.41667H16.9167Z" fill="black"/>
<path fill-rule="evenodd" clip-rule="evenodd" d="M19.3335 4.8335H21.7502V7.25016H19.3335V4.8335Z" fill="black"/>
<path d="M1.20833 14.5H10.875C11.1955 14.5 11.5028 14.6273 11.7294 14.8539C11.956 15.0805 12.0833 15.3879 12.0833 15.7083V25.375C12.0833 25.6955 11.956 26.0028 11.7294 26.2294C11.5028 26.456 11.1955 26.5833 10.875 26.5833H1.20833C0.887863 26.5833 0.580519 26.456 0.353913 26.2294C0.127306 26.0028 0 25.6955 0 25.375V15.7083C0 15.3879 0.127306 15.0805 0.353913 14.8539C0.580519 14.6273 0.887863 14.5 1.20833 14.5ZM2.41667 16.9167V24.1667H9.66667V16.9167H2.41667Z" fill="black"/>
<path fill-rule="evenodd" clip-rule="evenodd" d="M4.8335 19.3335H7.25016V21.7502H4.8335V19.3335Z" fill="black"/>
<path d="M26.5833 21.75H21.75V26.5833H15.7083C15.3879 26.5833 15.0805 26.456 14.8539 26.2294C14.6273 26.0028 14.5 25.6955 14.5 25.375V15.7083V21.75H16.9167V24.1667H19.3333V16.9167H16.9167V14.5H15.7083H19.3333V16.9167H21.75V19.3333H24.1667V14.5H25.375C25.6955 14.5 26.0028 14.6273 26.2294 14.8539C26.456 15.0805 26.5833 15.3879 26.5833 15.7083V21.75ZM26.5833 24.1667V25.375C26.5833 25.6955 26.456 26.0028 26.2294 26.2294C26.0028 26.456 25.6955 26.5833 25.375 26.5833H24.1667V24.1667H26.5833Z" fill="black"/>
</svg>
