<svg width="12" height="10" viewBox="0 0 12 10" fill="none" xmlns="http://www.w3.org/2000/svg">
<path d="M5.37489 0.543434C5.43404 0.363646 5.68666 0.358971 5.75242 0.536448L6.90369 3.64379C6.93316 3.72335 7.00963 3.77566 7.09447 3.77428L10.5974 3.71746C10.7946 3.71426 10.8769 3.96814 10.7154 4.08125L7.94409 6.02208C7.8696 6.07425 7.83968 6.17011 7.87128 6.25538L9.00687 9.32041C9.0738 9.50106 8.87171 9.6626 8.71024 9.55752L5.80953 7.6699C5.74113 7.62539 5.65256 7.6269 5.58572 7.67371L2.75665 9.65497C2.59909 9.76531 2.39183 9.61137 2.45194 9.42865L3.47244 6.32653C3.50079 6.24035 3.46758 6.14588 3.39154 6.0964L0.548584 4.24636C0.383171 4.13872 0.457099 3.88195 0.654426 3.87875L4.15484 3.82197C4.24001 3.82059 4.31496 3.76541 4.34158 3.68449L5.37489 0.543434Z" fill="#FF9A03" stroke="#FF9A03" stroke-width="0.5"/>
</svg>
