<svg width="13" height="10" viewBox="0 0 13 10" fill="none" xmlns="http://www.w3.org/2000/svg">
<path d="M6.49397 0.483621C6.55662 0.312214 6.79728 0.307389 6.86675 0.476148L8.17362 3.65075C8.20488 3.72668 8.27938 3.77579 8.36149 3.77459L12.2882 3.71726C12.4903 3.71431 12.5687 3.97869 12.3978 4.08644L9.32863 6.02091C9.24635 6.07277 9.21331 6.1763 9.25033 6.26624L10.5152 9.33875C10.5881 9.51583 10.3944 9.68424 10.2292 9.58746L6.93415 7.65767C6.86971 7.61993 6.78961 7.62123 6.72643 7.66105L3.51115 9.68762C3.34978 9.78933 3.15118 9.62891 3.21666 9.44976L4.35437 6.33719C4.38756 6.24637 4.35104 6.14481 4.2676 6.09594L1.11826 4.25147C0.943591 4.14917 1.01402 3.88186 1.21642 3.87891L5.13691 3.82167C5.21982 3.82046 5.29338 3.76822 5.32184 3.69035L6.49397 0.483621Z" stroke="#FF9A03" stroke-width="0.5"/>
</svg>
