<svg width="129" height="129" viewBox="0 0 129 129" fill="none" xmlns="http://www.w3.org/2000/svg">
<circle cx="64.5" cy="64.5" r="64.5" fill="#F3001F" fill-opacity="0.1"/>
<circle cx="64.5" cy="63.5" r="30.5" fill="white"/>
<path d="M64.4994 24.9165C42.6889 24.9165 24.916 42.6894 24.916 64.4998C24.916 86.3103 42.6889 104.083 64.4994 104.083C86.3098 104.083 104.083 86.3103 104.083 64.4998C104.083 42.6894 86.3098 24.9165 64.4994 24.9165ZM83.4202 55.3957L60.9764 77.8394C60.4223 78.3936 59.6702 78.7103 58.8785 78.7103C58.0868 78.7103 57.3348 78.3936 56.7806 77.8394L45.5785 66.6373C44.4306 65.4894 44.4306 63.5894 45.5785 62.4415C46.7264 61.2936 48.6264 61.2936 49.7743 62.4415L58.8785 71.5457L79.2244 51.1998C80.3723 50.0519 82.2723 50.0519 83.4202 51.1998C84.5681 52.3478 84.5681 54.2082 83.4202 55.3957Z" fill="#F3001F"/>
</svg>
