<svg width="25" height="24" viewBox="0 0 25 24" fill="none" xmlns="http://www.w3.org/2000/svg">
<path d="M7.54863 13.406C7.54895 13.406 7.54925 13.4061 7.54948 13.4064L10.7299 16.5886C10.925 16.7838 10.925 17.1002 10.7299 17.2955L10.0234 18.0024C9.82828 18.1977 9.82834 18.5142 10.0236 18.7094L10.7316 19.4174C10.9268 19.6127 10.9268 19.9293 10.7316 20.1246L10.0247 20.8314C9.82942 21.0267 9.51283 21.0267 9.31757 20.8314L7.54968 19.0636C7.35442 18.8683 7.03783 18.8683 6.84257 19.0636L4.72068 21.1854C4.52542 21.3807 4.20883 21.3807 4.01357 21.1854L3.30662 20.4785C3.11138 20.2833 3.11135 19.9667 3.30655 19.7714L5.42863 17.6486C5.62386 17.4533 5.6238 17.1367 5.42849 16.9415L3.66082 15.1746C3.46549 14.9793 3.46546 14.6627 3.66075 14.4674L4.3677 13.7604C4.56291 13.5652 4.8794 13.5652 5.07468 13.7603L5.78145 14.4666C5.97678 14.6618 6.29336 14.6617 6.48855 14.4663L7.54777 13.4064C7.548 13.4061 7.54831 13.406 7.54863 13.406ZM3.49955 3.50085C3.49932 3.22438 3.7235 3.00019 3.99997 3.00042L6.83825 3.00283C6.97072 3.00294 7.09773 3.05561 7.1914 3.14929L18.5087 14.4675C18.7039 14.6628 19.0204 14.6628 19.2157 14.4677L19.9236 13.7603C20.1189 13.5652 20.4353 13.5652 20.6306 13.7604L21.3376 14.4675C21.5329 14.6628 21.5329 14.9793 21.3377 15.1746L19.5705 16.9425C19.3753 17.1378 19.3753 17.4542 19.5705 17.6495L21.6917 19.7714C21.8869 19.9667 21.8869 20.2833 21.6916 20.4785L20.9847 21.1854C20.7894 21.3807 20.4728 21.3807 20.2776 21.1854L18.1557 19.0636C17.9604 18.8683 17.6438 18.8683 17.4486 19.0636L15.6807 20.8314C15.4854 21.0267 15.1688 21.0267 14.9736 20.8314L14.2666 20.1244C14.0713 19.9292 14.0713 19.6127 14.2664 19.4174L14.9738 18.7096C15.169 18.5143 15.1689 18.1978 14.9737 18.0026L3.6484 6.67727C3.55473 6.58361 3.50206 6.4566 3.50195 6.32414L3.49955 3.50085ZM17.8095 3.14658C17.9034 3.05273 18.0307 3.00006 18.1634 3.00018L20.9998 3.00258C21.2757 3.00281 21.4993 3.22643 21.4994 3.50229L21.501 6.31869C21.5011 6.45142 21.4484 6.57873 21.3545 6.67257L17.8016 10.2246C17.6064 10.4198 17.2899 10.4198 17.0946 10.2246L14.2658 7.3966C14.0705 7.20133 14.0705 6.88467 14.2658 6.6894L17.8095 3.14658Z" fill="#B0B0B0"/>
</svg>
