<svg width="19" height="19" viewBox="0 0 19 19" fill="none" xmlns="http://www.w3.org/2000/svg">
<path d="M8.90625 14.4479H7.125C6.25417 14.4479 5.54167 15.1604 5.54167 16.0313V16.2292H4.75C4.42542 16.2292 4.15625 16.4983 4.15625 16.8229C4.15625 17.1475 4.42542 17.4167 4.75 17.4167H14.25C14.5746 17.4167 14.8438 17.1475 14.8438 16.8229C14.8438 16.4983 14.5746 16.2292 14.25 16.2292H13.4583V16.0313C13.4583 15.1604 12.7458 14.4479 11.875 14.4479H10.0938V12.635C9.89583 12.6588 9.69792 12.6667 9.5 12.6667C9.30208 12.6667 9.10417 12.6588 8.90625 12.635V14.4479Z" fill="#F3001F"/>
<path d="M14.6301 9.21492C15.1526 9.017 15.6117 8.69242 15.9759 8.32825C16.7121 7.51284 17.1951 6.53909 17.1951 5.39909C17.1951 4.25909 16.3005 3.3645 15.1605 3.3645H14.7171C14.2026 2.31159 13.1259 1.58325 11.8751 1.58325H7.12505C5.87422 1.58325 4.79755 2.31159 4.28297 3.3645H3.83964C2.69964 3.3645 1.80505 4.25909 1.80505 5.39909C1.80505 6.53909 2.28797 7.51284 3.02422 8.32825C3.38839 8.69242 3.84755 9.017 4.37005 9.21492C5.19339 11.2416 7.17255 12.6666 9.50005 12.6666C11.8276 12.6666 13.8067 11.2416 14.6301 9.21492ZM11.7484 6.6895L11.2576 7.29117C11.1784 7.37825 11.123 7.55242 11.1309 7.67117L11.1784 8.447C11.2101 8.922 10.8696 9.16742 10.4263 8.99325L9.70589 8.70825C9.59505 8.66867 9.40505 8.66867 9.29422 8.70825L8.5738 8.99325C8.13047 9.16742 7.79005 8.922 7.82172 8.447L7.86922 7.67117C7.87714 7.55242 7.82172 7.37825 7.74255 7.29117L7.25172 6.6895C6.94297 6.32534 7.07755 5.92159 7.53672 5.80284L8.2888 5.61284C8.40755 5.58117 8.55005 5.47034 8.61339 5.36742L9.03297 4.71825C9.29422 4.3145 9.70589 4.3145 9.96714 4.71825L10.3867 5.36742C10.4501 5.47034 10.5926 5.58117 10.7113 5.61284L11.4634 5.80284C11.9226 5.92159 12.0571 6.32534 11.7484 6.6895Z" fill="#F3001F"/>
</svg>
