<svg width="19" height="19" viewBox="0 0 19 19" fill="none" xmlns="http://www.w3.org/2000/svg">
<path d="M9.61877 13.0625V14.725" stroke="#292A2E" stroke-width="1.5" stroke-linecap="round" stroke-linejoin="round"/>
<path d="M5.6604 17.4167H13.5771V16.6251C13.5771 15.7542 12.8646 15.0417 11.9937 15.0417H7.24373C6.3729 15.0417 5.6604 15.7542 5.6604 16.6251V17.4167V17.4167Z" stroke="#292A2E" stroke-width="1.5" stroke-miterlimit="10"/>
<path d="M4.86877 17.4167H14.3688" stroke="#292A2E" stroke-width="1.5" stroke-linecap="round" stroke-linejoin="round"/>
<path d="M9.50004 12.6666C6.43629 12.6666 3.95837 10.1887 3.95837 7.12492V4.74992C3.95837 3.00034 5.37546 1.58325 7.12504 1.58325H11.875C13.6246 1.58325 15.0417 3.00034 15.0417 4.74992V7.12492C15.0417 10.1887 12.5638 12.6666 9.50004 12.6666Z" stroke="#292A2E" stroke-width="1.5" stroke-linecap="round" stroke-linejoin="round"/>
<path d="M4.33041 9.22301C3.73666 9.03301 3.21416 8.68468 2.80249 8.27301C2.08999 7.48135 1.61499 6.53135 1.61499 5.42301C1.61499 4.31468 2.48582 3.44385 3.59416 3.44385H4.10874C3.95041 3.80801 3.87124 4.21176 3.87124 4.63135V7.00635C3.87124 7.79801 4.03749 8.54218 4.33041 9.22301Z" stroke="#292A2E" stroke-width="1.5" stroke-linecap="round" stroke-linejoin="round"/>
<path d="M14.6696 9.22301C15.2633 9.03301 15.7858 8.68468 16.1975 8.27301C16.91 7.48135 17.385 6.53135 17.385 5.42301C17.385 4.31468 16.5141 3.44385 15.4058 3.44385H14.8912C15.0496 3.80801 15.1287 4.21176 15.1287 4.63135V7.00635C15.1287 7.79801 14.9625 8.54218 14.6696 9.22301Z" stroke="#292A2E" stroke-width="1.5" stroke-linecap="round" stroke-linejoin="round"/>
</svg>
