<svg width="19" height="20" viewBox="0 0 19 20" fill="none" xmlns="http://www.w3.org/2000/svg">
<path d="M9.49935 10.0002C11.6855 10.0002 13.4577 8.22796 13.4577 6.04183C13.4577 3.8557 11.6855 2.0835 9.49935 2.0835C7.31322 2.0835 5.54102 3.8557 5.54102 6.04183C5.54102 8.22796 7.31322 10.0002 9.49935 10.0002Z" stroke="#1E272E" stroke-width="1.5" stroke-linecap="round" stroke-linejoin="round"/>
<path d="M2.69922 17.9167C2.69922 14.8529 5.74713 12.375 9.49963 12.375C10.2596 12.375 10.9959 12.4779 11.6846 12.6679" stroke="#1E272E" stroke-width="1.5" stroke-linecap="round" stroke-linejoin="round"/>
<path d="M17.4173 14.7502C17.4173 15.0035 17.3857 15.2489 17.3223 15.4864C17.2511 15.8031 17.1244 16.1118 16.9582 16.381C16.4119 17.2993 15.4065 17.9168 14.2507 17.9168C13.4352 17.9168 12.699 17.6081 12.1448 17.1014C11.9073 16.8956 11.7015 16.6502 11.5431 16.381C11.2502 15.906 11.084 15.3439 11.084 14.7502C11.084 13.8952 11.4244 13.1114 11.9786 12.5414C12.5565 11.9477 13.364 11.5835 14.2507 11.5835C15.1848 11.5835 16.0319 11.9873 16.6019 12.6364C17.1086 13.1985 17.4173 13.9427 17.4173 14.7502Z" stroke="#1E272E" stroke-width="1.5" stroke-miterlimit="10" stroke-linecap="round" stroke-linejoin="round"/>
<path d="M15.4295 14.7339H13.0703" stroke="#1E272E" stroke-width="1.5" stroke-miterlimit="10" stroke-linecap="round" stroke-linejoin="round"/>
<path d="M14.25 13.5781V15.9452" stroke="#1E272E" stroke-width="1.5" stroke-miterlimit="10" stroke-linecap="round" stroke-linejoin="round"/>
</svg>
